 Full Credits To Feel Free :)
 ######## ######## ######## ##          ######## ########  ######## ######## 
 ##       ##       ##       ##          ##       ##     ## ##       ##       
 ##       ##       ##       ##          ##       ##     ## ##       ##       
 ######   ######   ######   ##          ######   ########  ######   ######   
 ##       ##       ##       ##          ##       ##   ##   ##       ##       
 ##       ##       ##       ##          ##       ##    ##  ##       ##       
 ##       ######## ######## ########    ##       ##     ## ######## ######## 


 Genre:Comedy | Drama | Family 
 Language:English
 IMDb:http://www.imdb.com/title/tt1790658/
 Source:720p.BluRay.x264-SEMTEX Thanks!

 Format : AVI
 Format/Info : Audio Video Interleave
 File size : 1.07 GiB
 Duration : 1h 27mn
 Overall bit rate : 1 740 Kbps

 Video
 ID : 0
 Format : MPEG-4 Visual
 Format profile : Advanced Simple@L5
 Format settings, BVOP : Yes
 Format settings, QPel : No
 Format settings, GMC : No warppoints
 Format settings, Matrix : Default (H.263)
 Codec ID : XVID
 Codec ID/Hint : XviD
 Duration : 1h 27mn
 Bit rate : 1 283 Kbps
 Width : 640 pixels
 Height : 360 pixels
 Display aspect ratio : 16:9
 Frame rate : 23.976 fps
 Color space : YUV
 Chroma subsampling : 4:2:0
 Bit depth : 8 bits
 Scan type : Progressive
 Bits/(Pixel*Frame) : 0.232
 Stream size : 807 MiB (74%)
 Writing library : XviD 1.2.1 (UTC 2008-12-04)

 Audio
 ID : 1
 Format : AC-3
 Format/Info : Audio Coding 3
 Mode extension : CM (complete main)
 Codec ID : 2000
 Duration : 1h 27mn
 Bit rate mode : Constant
 Bit rate : 448 Kbps
 Channel(s) : 6 channels
 Channel positions : Front: L C R, Side: L R, LFE
 Sampling rate : 48.0 KHz
 Bit depth : 16 bits
 Stream size : 282 MiB (26%)
 Alignment : Aligned on interleaves
 Interleave, duration : 42 ms (1.00 video frame)
 Interleave, preload duration : 512 ms


 Plot:
 Sally and Jason Danville's life are turned upside down when a tragic 
 accident suddenly names them the caretakers of four young children






 ==================================  http://thepiratebay.org/user/hiest
 ==================================






 Screen Shots:
  http://leetleech.org/images/62342060387563624251.png
  http://leetleech.org/images/64966418054541075050.png
  http://leetleech.org/images/88320692721814610871.png
  http://leetleech.org/images/72662228141262432792.png
  http://leetleech.org/images/91698201735909491656.png
  http://leetleech.org/images/73528695679382747154.png


 Full Credits To Feel Free :)
 ######## ######## ######## ##          ######## ########  ######## ######## 
 ##       ##       ##       ##          ##       ##     ## ##       ##       
 ##       ##       ##       ##          ##       ##     ## ##       ##       
 ######   ######   ######   ##          ######   ########  ######   ######   
 ##       ##       ##       ##          ##       ##   ##   ##       ##       
 ##       ##       ##       ##          ##       ##    ##  ##       ##       
 ##       ######## ######## ########    ##       ##     ## ######## ######## 